<?xml version="1.0" standalone="no"?>
<!DOCTYPE svg PUBLIC "-//W3C//DTD SVG 20010904//EN"
 "http://www.w3.org/TR/2001/REC-SVG-20010904/DTD/svg10.dtd">
<svg version="1.0" xmlns="http://www.w3.org/2000/svg"
 width="512.000000pt" height="512.000000pt" viewBox="0 0 512.000000 512.000000"
 preserveAspectRatio="xMidYMid meet">
<metadata>
Created by potrace 1.11, written by Peter Selinger 2001-2013
</metadata>
<g transform="translate(0.000000,512.000000) scale(0.100000,-0.100000)"
fill="#000000" stroke="none">
<path d="M0 2560 l0 -2560 2560 0 2560 0 0 2560 0 2560 -2560 0 -2560 0 0
-2560z m1364 2309 c-164 -249 -197 -543 -93 -808 55 -136 116 -227 230 -343
136 -137 291 -239 467 -307 l53 -21 8 23 c5 12 18 43 30 70 l20 47 -93 44
c-134 62 -229 127 -324 219 -74 73 -162 182 -151 190 2 2 33 26 69 54 399 311
883 422 1363 312 229 -52 456 -162 644 -311 l62 -49 -32 -52 c-72 -118 -252
-267 -422 -349 l-83 -40 28 -66 c15 -37 33 -68 38 -70 19 -6 161 66 265 134
113 74 255 206 321 299 58 80 113 191 144 289 22 71 25 99 26 231 1 127 -2
163 -22 235 -26 94 -84 217 -138 293 -32 45 -33 48 -12 41 41 -13 201 -105
282 -163 103 -72 272 -239 325 -319 104 -155 151 -302 151 -472 0 -224 -86
-422 -268 -612 l-74 -77 40 -103 c99 -257 130 -387 166 -700 6 -54 25 -46
-149 -68 -148 -19 -317 -83 -445 -170 -231 -157 -391 -432 -445 -765 -8 -49
-15 -156 -15 -236 l0 -146 -105 -18 c-58 -10 -109 -15 -113 -11 -4 4 -6 117
-5 250 l2 243 -86 6 c-48 4 -89 4 -93 1 -3 -3 -6 -124 -8 -268 l-3 -263 -82
-7 c-45 -3 -97 -6 -114 -6 l-33 0 0 280 0 280 -95 0 -95 0 0 -280 0 -280 -59
0 c-32 0 -85 3 -119 6 l-61 7 -3 263 c-2 144 -5 265 -8 268 -4 3 -44 3 -91 -1
l-86 -6 1 -242 c1 -134 -2 -247 -7 -251 -6 -7 -179 20 -214 33 -10 4 -13 41
-13 137 0 232 -42 431 -130 611 -159 329 -461 536 -835 574 -47 5 -88 11 -91
14 -8 7 14 181 37 307 26 134 77 308 127 431 l39 95 -78 82 c-271 285 -346
601 -219 918 92 231 320 458 617 616 60 32 109 58 109 58 1 0 -22 -36 -52 -81z
m608 -3975 l86 -16 -4 -32 c-2 -17 -8 -67 -14 -111 -5 -44 -22 -159 -37 -256
l-27 -176 -65 30 c-70 31 -198 104 -206 117 -3 4 7 41 20 81 25 73 77 277 90
353 6 37 8 38 38 32 18 -4 71 -14 119 -22z m1383 -11 c11 -64 74 -317 94 -376
l20 -56 -66 -42 c-61 -38 -193 -103 -198 -97 -9 13 -86 558 -80 566 2 2 165
33 217 41 4 1 10 -16 13 -36z m-855 -374 l0 -329 -47 6 c-77 9 -225 34 -264
44 l-35 10 38 232 c21 128 41 267 44 308 l6 75 129 -9 129 -9 0 -328z m454
204 c15 -125 55 -375 71 -449 4 -19 -4 -23 -90 -42 -52 -12 -129 -25 -170 -29
l-75 -6 0 326 0 325 88 7 c48 3 96 7 107 9 54 9 51 15 69 -141z"/>
<path d="M1470 3074 c-133 -145 -146 -357 -30 -511 107 -140 274 -218 465
-217 160 2 294 51 401 148 53 48 124 153 124 184 0 5 -37 15 -82 22 -310 45
-573 165 -752 344 -42 42 -77 76 -80 76 -2 0 -22 -21 -46 -46z"/>
<path d="M3563 3045 c-170 -174 -420 -291 -727 -341 -58 -10 -106 -21 -106
-26 0 -31 54 -113 111 -170 174 -172 453 -214 687 -102 99 48 191 138 234 230
30 63 33 78 33 164 0 86 -3 101 -31 160 -29 60 -107 161 -122 159 -4 0 -39
-34 -79 -74z"/>
<path d="M2566 2604 c-50 -217 -168 -514 -272 -685 -20 -33 -34 -62 -32 -64
14 -15 202 -35 323 -35 119 0 308 20 323 34 2 2 -12 28 -31 57 -128 203 -208
402 -270 673 l-23 99 -18 -79z"/>
</g>
</svg>
